<svg xmlns="http://www.w3.org/2000/svg" version="1.1" width="520" height="570">
	<title>Reitzner-Wappen</title>
	<desc>Das Wappen der Familie Reitzner version 1.0</desc>
	<g transform="translate(10,10)">
		<path d="	M 	88,0 
					L 	0,98 
					L 	30,201 
					L	30,340
					A	1,1 0 0,0 495,300
					A	160,80 45 0,0 464,213
					A	160,80 225 0,1 464,106
					L	488,88
					L	499,46
					L	444,0
					L	88,0"
					fill="#0D47A1" stroke-width="0" />
		<g stroke-width="30" stroke="#FFC107">
			<line x1="263" y1="50" x2="263" y2="410" />
			<line x1="142" y1="154" x2="384" y2="154" />
			<line x1="199" y1="332" x2="327" y2="332" />
			<g fill="#FFC107" stroke-width="0">
				<path d="	M	200,317
							A	35,30 0 0,1 169,279
							L	176,262
							L	156,250
							A	100,69 162 0,0 200,347 
							z" />
				<path d="	M	248,409
							L	231,455
							A	3,3 0 0,0 234,458
							L	260,417
							A	5,5 0 0,1 266,417
							L	292,458
							A	3,3 0 0,0 295,455
							L	278,409
							z" />
				<path d="	M	326,347
							A	35,30 0 0,1 358,379
							A	35,30 0 0,1 335,400
							A	70,70 0 0,1 324,402
							A	5,5 0 0,0 324,405
							A	40,40 0 0,0 360,400
							A	5,5 0 0,1 367,403
							A	60,60 0 0,0 383,436
							A	3,3 0 0,0 386,434
							A	50,50 0 0,1 384,397
							L 	387,387
							A	100,69 162 0,0 326,317 
							z" />
			</g>
		</g>
	</g>	
</svg>