<?xml version="1.0" encoding="UTF-8"?>
<svg version="1.1" viewBox="0 0 520 570" xmlns="http://www.w3.org/2000/svg">
<title>Reitzner-Wappen</title>
<desc>Das Wappen der Familie Reitzner version 1.0</desc>
<g transform="translate(10,10)">
<path d="m88 0l-88 98 30 103v139a1 1 0 0 0 465 -40 160 80 45 0 0 -31 -87 160 80 225 0 1 0 -107l24-18 11-42-55-46h-356" fill="#0D47A1" stroke-width="0"/>
<g stroke="#FFC107" stroke-width="30">
<line x1="263" x2="263" y1="50" y2="410"/>
<line x1="142" x2="384" y1="154" y2="154"/>
<line x1="199" x2="327" y1="332" y2="332"/>
<g fill="#FFC107" stroke-width="0">
<path d="m200 317a35 30 0 0 1 -31 -38l7-17-20-12a100 69 162 0 0 44 97z"/>
<path d="m248 409l-17 46a3 3 0 0 0 3 3l26-41a5 5 0 0 1 6 0l26 41a3 3 0 0 0 3 -3l-17-46z"/>
<path d="m326 347a35 30 0 0 1 32 32 35 30 0 0 1 -23 21 70 70 0 0 1 -11 2 5 5 0 0 0 0 3 40 40 0 0 0 36 -5 5 5 0 0 1 7 3 60 60 0 0 0 16 33 3 3 0 0 0 3 -2 50 50 0 0 1 -2 -37l3-10a100 69 162 0 0 -61 -70z"/>
</g>
</g>
</g>
</svg>